<svg width="27" height="20" viewBox="0 0 27 20" fill="none" xmlns="http://www.w3.org/2000/svg">
<g id="Group">
<path id="Vector" d="M25.9928 9.17519L17.8261 1.00853C17.6061 0.79601 17.3114 0.678416 17.0055 0.681074C16.6996 0.683733 16.407 0.80643 16.1907 1.02274C15.9744 1.23905 15.8517 1.53166 15.849 1.83756C15.8464 2.14346 15.964 2.43816 16.1765 2.65819L22.3516 8.83336H1.83464C1.52522 8.83336 1.22847 8.95628 1.00968 9.17507C0.790885 9.39386 0.667969 9.69061 0.667969 10C0.667969 10.3094 0.790885 10.6062 1.00968 10.825C1.22847 11.0438 1.52522 11.1667 1.83464 11.1667H22.3516L16.1765 17.3419C16.065 17.4495 15.9762 17.5782 15.915 17.7206C15.8539 17.8629 15.8217 18.016 15.8203 18.1709C15.819 18.3258 15.8485 18.4794 15.9072 18.6228C15.9658 18.7662 16.0525 18.8964 16.162 19.006C16.2716 19.1155 16.4018 19.2022 16.5452 19.2608C16.6886 19.3195 16.8422 19.349 16.9971 19.3477C17.152 19.3463 17.3051 19.3141 17.4474 19.253C17.5898 19.1918 17.7185 19.103 17.8261 18.9915L25.9928 10.8249C26.2115 10.6061 26.3344 10.3094 26.3344 10C26.3344 9.69067 26.2115 9.39398 25.9928 9.17519Z" fill="white"/>
</g>
</svg>
