<svg width="25" height="24" viewBox="0 0 25 24" fill="none" xmlns="http://www.w3.org/2000/svg">
<g id="Group">
<path id="Vector" d="M17.1012 7.00003H7.90111C7.84866 6.99942 7.7966 7.00913 7.74796 7.02859C7.69932 7.04806 7.65507 7.07689 7.61776 7.11342C7.58045 7.14995 7.55083 7.19345 7.53062 7.2414C7.5104 7.28936 7.5 7.3408 7.5 7.39277V16.605C7.5 16.822 7.67969 17 7.90111 17H17.1012C17.3215 17 17.5 16.8232 17.5 16.605V7.39277C17.5 7.341 17.4897 7.28974 17.4696 7.24194C17.4495 7.19414 17.4201 7.15074 17.3831 7.11424C17.346 7.07774 17.302 7.04886 17.2536 7.02926C17.2053 7.00966 17.1535 6.99972 17.1012 7.00003Z" fill="white"/>
<path id="Vector_2" d="M12.5 0C5.87344 0 0.5 5.37185 0.5 12C0.5 18.6282 5.87344 24 12.5 24C19.1274 24 24.4984 18.6282 24.4984 12C24.4984 5.37185 19.1274 0 12.5 0ZM12.5 21.9953C6.9796 21.9953 2.50386 17.5196 2.50386 12C2.50386 6.478 6.9796 2.00306 12.5 2.00306C18.0212 2.00306 22.4945 6.478 22.4945 12C22.4945 17.5196 18.0212 21.9953 12.5 21.9953Z" fill="white"/>
</g>
</svg>
