<svg width="34" height="54" viewBox="0 0 34 54" fill="none" xmlns="http://www.w3.org/2000/svg">
<g id="Group">
<path id="Vector" d="M34 27.4375C34 26.375 33.1875 25.5625 32.125 25.5625C31.0625 25.5625 30.25 26.375 30.25 27.4375C30.25 34.75 24.3125 40.6875 17 40.6875C9.6875 40.6875 3.75 34.75 3.75 27.4375C3.75 26.375 2.9375 25.5625 1.875 25.5625C0.8125 25.5625 0 26.375 0 27.4375C0 36.125 6.5 43.4375 15.125 44.375V49.375H8.3125C7.25 49.375 6.4375 50.1875 6.4375 51.25C6.4375 52.3125 7.25 53.125 8.3125 53.125H25.6875C26.75 53.125 27.5625 52.3125 27.5625 51.25C27.5625 50.1875 26.75 49.375 25.6875 49.375H18.875V44.375C27.5 43.4375 34 36.125 34 27.4375Z" fill="white"/>
<path id="Vector_2" d="M17 0C11.25 0 6.5625 4.6875 6.5625 10.4375V27.375C6.5625 33.1875 11.25 37.8125 17 37.875C22.75 37.875 27.4375 33.1875 27.4375 27.4375V10.4375C27.4375 4.6875 22.75 0 17 0Z" fill="white"/>
</g>
</svg>
