<svg width="24" height="25" viewBox="0 0 24 25" fill="none" xmlns="http://www.w3.org/2000/svg">
<g id="vuesax/linear/video-square">
<g id="video-square">
<path id="Vector" d="M9 22.5H15C20 22.5 22 20.5 22 15.5V9.5C22 4.5 20 2.5 15 2.5H9C4 2.5 2 4.5 2 9.5V15.5C2 20.5 4 22.5 9 22.5Z" stroke="#525966" stroke-width="1.5" stroke-linecap="round" stroke-linejoin="round"/>
<path id="Vector_2" d="M9.10156 12.5V11.02C9.10156 9.10999 10.4516 8.33999 12.1016 9.28999L13.3816 10.03L14.6616 10.77C16.3116 11.72 16.3116 13.28 14.6616 14.23L13.3816 14.97L12.1016 15.71C10.4516 16.66 9.10156 15.88 9.10156 13.98V12.5Z" stroke="#525966" stroke-width="1.5" stroke-miterlimit="10" stroke-linecap="round" stroke-linejoin="round"/>
</g>
</g>
</svg>
